<svg id="그룹_13" data-name="그룹 13" xmlns="http://www.w3.org/2000/svg" xmlns:xlink="http://www.w3.org/1999/xlink" width="316" height="440" viewBox="0 0 316 440">
  
  <g id="그룹_12" data-name="그룹 12" clip-path="url(#clip-path)">
    <path id="패스_3" data-name="패스 3" d="M273.661.941a43.208,43.208,0,0,0,41.4,42.521V396.488a43.533,43.533,0,0,0-42.486,42.571H43.428A43.534,43.534,0,0,0,.941,396.488V43.512A43.534,43.534,0,0,0,43.428.941ZM274.593,0H42.5A42.538,42.538,0,0,1,0,42.581V397.419A42.538,42.538,0,0,1,42.5,440H273.5A42.539,42.539,0,0,1,316,397.419V42.553A42.532,42.532,0,0,1,274.593,0" fill="red"/>
  </g>
</svg>
